HIERARCHY
ROOT Hips
{
	OFFSET 0.000000 0.000000 0.000000 
	CHANNELS 6 Xposition Yposition Zposition Zrotation Yrotation Xrotation
	JOINT LeftUpLeg
	{
		OFFSET 1.363060 -1.794630 0.839290 
		CHANNELS 3 Zrotation Yrotation Xrotation
		JOINT LeftLeg
		{
			OFFSET 2.448110 -6.726130 0.000000 
			CHANNELS 3 Zrotation Yrotation Xrotation
			JOINT LeftFoot
			{
				OFFSET 2.562200 -7.039590 0.000000 
				CHANNELS 3 Zrotation Yrotation Xrotation
				JOINT LeftToeBase
				{
					OFFSET 0.157640 -0.433110 2.322550 
					CHANNELS 3 Zrotation Yrotation Xrotation
					End Site
					{
						OFFSET 0.000000 0.000000 0.000000 
					}
				}
			}
		}
	}
	JOINT RightUpLeg
	{
		OFFSET -1.305520 -1.794630 0.839290 
		CHANNELS 3 Zrotation Yrotation Xrotation
		JOINT RightLeg
		{
			OFFSET -2.542530 -6.985550 0.000000 
			CHANNELS 3 Zrotation Yrotation Xrotation
			JOINT RightFoot
			{
				OFFSET -2.568260 -7.056230 0.000000 
				CHANNELS 3 Zrotation Yrotation Xrotation
				JOINT RightToeBase
				{
					OFFSET -0.164730 -0.452590 2.363150 
					CHANNELS 3 Zrotation Yrotation Xrotation
					End Site
					{
						OFFSET 0.000000 0.000000 0.000000 
					}
				}
			}
		}
	}
	JOINT Spine
	{
		OFFSET 0.028270 2.035590 -0.193380 
		CHANNELS 3 Zrotation Yrotation Xrotation
		JOINT Spine1
		{
			OFFSET 0.056720 2.048850 -0.042750 
			CHANNELS 3 Zrotation Yrotation Xrotation
			JOINT Neck1
			{
				OFFSET -0.054170 1.746240 0.172020 
				CHANNELS 3 Zrotation Yrotation Xrotation
				JOINT Head
				{
					OFFSET 0.104070 1.761360 -0.123970 
					CHANNELS 3 Zrotation Yrotation Xrotation
					End Site
					{
						OFFSET 0.000000 0.000000 0.000000 
					}
				}
			}
			JOINT LeftArm
			{
				OFFSET 3.362410 1.200890 -0.311210 
				CHANNELS 3 Zrotation Yrotation Xrotation
				JOINT LeftForeArm
				{
					OFFSET 4.983000 -0.000000 -0.000000 
					CHANNELS 3 Zrotation Yrotation Xrotation
					JOINT LeftHand
					{
						OFFSET 3.483560 -0.000000 -0.000000 
						CHANNELS 3 Zrotation Yrotation Xrotation
						JOINT LeftHandIndex1
						{
							OFFSET 0.715260 -0.000000 -0.000000 
							CHANNELS 3 Zrotation Yrotation Xrotation
							End Site
							{
								OFFSET 0.000000 0.000000 0.000000 
							}
						}
					}
				}
			}
			JOINT RightArm
			{
				OFFSET -3.136600 1.374050 -0.404650 
				CHANNELS 3 Zrotation Yrotation Xrotation
				JOINT RightForeArm
				{
					OFFSET -5.241900 -0.000000 -0.000000 
					CHANNELS 3 Zrotation Yrotation Xrotation
					JOINT RightHand
					{
						OFFSET -3.444170 -0.000000 -0.000000 
						CHANNELS 3 Zrotation Yrotation Xrotation
						JOINT RightHandIndex1
						{
							OFFSET -0.622530 -0.000000 -0.000000 
							CHANNELS 3 Zrotation Yrotation Xrotation
							End Site
							{
								OFFSET 0.000000 0.000000 0.000000 
							}
						}
					}
				}
			}
		}
	}
}
MOTION
Frames: 12
Frame Time: 0.041667
10.216611 17.811350 -14.974902 -0.561157 -31.499282 4.267539 -14.924133 -4.083446 -15.183620 2.476291 12.057126 33.785722 -0.567490 5.051266 -8.753013 0.089700 1.932100 5.318000 5.881286 7.095698 -18.210199 -3.540929 -12.379331 35.508059 0.379183 -4.375971 -8.086191 -0.323800 -3.657200 10.114300 0.229107 0.911164 -0.933444 7.638837 0.507398 -1.958187 8.114882 -5.756176 20.889619 6.133700 -3.626900 12.439000 -89.640544 -4.162568 7.183213 13.015390 -22.419397 -2.273875 0.706675 -0.066389 16.137055 -7.125000 0.000000 0.000000 83.273429 2.117457 2.996968 -17.620841 27.110705 -4.973310 0.304294 0.596771 -12.290330 7.125000 0.000000 0.000000 
10.235680 17.811551 -14.968780 -0.380309 -31.897160 4.078752 -15.207832 -4.050149 -15.038087 2.460799 12.051272 33.747564 -0.644225 5.347769 -8.940051 0.075800 1.776600 4.888800 5.658233 7.300599 -18.121512 -3.548573 -12.386664 35.537563 0.353967 -4.232788 -8.033692 -0.385700 -3.988000 11.042800 0.215733 0.690829 -0.898099 7.694833 0.393445 -1.975326 8.093686 -5.341149 20.539460 6.115100 -3.425400 12.036500 -89.316398 -4.470488 7.357003 12.793649 -22.085994 -2.196480 0.704623 -0.072210 16.110650 -7.125000 0.000000 0.000000 83.388047 1.910105 3.079750 -17.744149 27.271684 -5.040652 0.298984 0.631421 -13.059807 7.125000 0.000000 0.000000 
10.252942 17.810447 -14.964966 -0.326378 -32.397771 3.947998 -15.364749 -3.857556 -14.947951 2.451146 12.051174 33.726752 -0.706243 5.588808 -9.094024 0.081500 1.841200 5.066900 5.558559 7.567384 -18.020614 -3.548433 -12.383886 35.532028 0.323173 -4.055238 -7.953839 -0.433900 -4.227100 11.716300 0.202670 0.545883 -0.822250 7.694154 0.307499 -1.898493 8.322830 -5.009175 19.683399 6.265400 -3.272600 11.263500 -88.952752 -4.845626 7.780901 12.615654 -21.814362 -2.129186 0.704362 -0.065450 15.519232 -7.125000 0.000000 0.000000 83.428216 1.585291 3.433345 -17.924314 27.516070 -5.137384 0.300830 0.678342 -14.073703 7.125000 0.000000 0.000000 
10.269803 17.808038 -14.963059 -0.394177 -32.877411 3.981562 -15.361024 -3.559409 -15.066868 2.451383 12.051558 33.726860 -0.728750 5.673419 -9.132525 0.093700 1.974300 5.434600 5.577340 7.895547 -18.042779 -3.540070 -12.366023 35.482485 0.331581 -4.065693 -7.764093 -0.381500 -3.966900 10.983500 0.205903 0.423548 -0.804257 7.649352 0.238420 -1.778245 8.046847 -4.854577 20.286875 6.110500 -3.211300 11.630100 -88.771994 -5.086592 7.662170 12.605264 -21.803491 -2.119747 0.706450 -0.058413 15.268167 -7.125000 0.000000 0.000000 83.412319 1.276591 3.400337 -17.922475 27.526447 -5.131968 0.311507 0.683091 -14.337232 7.125000 0.000000 0.000000 
10.288370 17.808941 -14.954629 -0.541839 -33.324171 4.053618 -15.303792 -3.312652 -15.157478 2.452785 12.054301 33.733495 -0.762024 5.795255 -9.174427 0.090200 1.937500 5.333000 5.651155 8.243498 -18.007560 -3.526879 -12.340801 35.409521 0.333962 -4.041549 -7.550859 -0.349600 -3.798800 10.511400 0.241068 0.251125 -0.845068 7.668854 0.163150 -1.943375 7.944524 -4.587855 20.439325 6.083600 -3.114800 11.599400 -88.744817 -5.019541 7.239846 12.640015 -21.854278 -2.125067 0.706961 -0.052192 15.504344 -7.125000 0.000000 0.000000 83.324256 0.822403 3.282048 -17.883484 27.504166 -5.119830 0.314500 0.669077 -14.281913 7.125000 0.000000 0.000000 
10.306737 17.810949 -14.947001 -0.681714 -33.833173 4.113493 -15.289498 -3.259323 -15.139430 2.447960 12.059279 33.738098 -0.860222 6.168188 -9.397119 0.090400 1.939500 5.338400 5.717201 8.557837 -17.988408 -3.510341 -12.311181 35.321345 0.322261 -3.949073 -7.379999 -0.349700 -3.799600 10.513500 0.277580 0.213901 -0.870117 7.719211 0.150726 -2.093417 7.947243 -4.409633 20.470215 6.110400 -3.051900 11.526600 -88.741817 -5.109921 7.061121 12.604358 -21.795183 -2.108536 0.706109 -0.051010 15.881671 -7.125000 0.000000 0.000000 83.208368 0.369489 3.073294 -17.915653 27.565983 -5.140601 0.312964 0.681425 -14.293156 7.125000 0.000000 0.000000 
10.322996 17.811852 -14.938972 -0.478561 -34.416799 4.044412 -15.602341 -3.242401 -15.146040 2.437519 12.063228 33.735638 -0.959121 6.561799 -9.736632 0.116500 2.200700 6.060800 5.440955 8.779969 -18.073155 -3.496480 -12.280010 35.237048 0.295037 -3.766718 -7.175889 -0.333500 -3.711100 10.265300 0.236083 0.225337 -0.822112 7.699040 0.142736 -1.899057 7.917377 -4.332141 20.628167 6.074800 -3.005600 11.611200 -88.582764 -5.545236 6.937940 12.523318 -21.676619 -2.075706 0.707768 -0.049951 16.250092 -7.125000 0.000000 0.000000 83.297973 0.270662 2.522728 -17.869696 27.508582 -5.104487 0.317499 0.698225 -14.095992 7.125000 0.000000 0.000000 
10.335340 17.812554 -14.931546 -0.375621 -34.884168 4.029236 -15.783617 -2.998710 -15.230724 2.430839 12.060721 33.720122 -0.986886 6.679927 -9.876280 0.130700 2.330100 6.418900 5.270836 9.018465 -18.101752 -3.485937 -12.257600 35.174514 0.275424 -3.632345 -7.007436 -0.302700 -3.537300 9.778300 0.212046 0.137918 -0.763531 7.681936 0.079620 -1.615300 7.896559 -4.283149 21.048540 6.064100 -2.986600 11.882900 -88.389311 -5.910106 6.894571 12.479186 -21.622374 -2.060023 0.709132 -0.047596 16.370969 -7.125000 0.000000 0.000000 83.352522 0.086051 2.220921 -17.875762 27.533633 -5.105225 0.321073 0.714343 -14.124375 7.125000 0.000000 0.000000 
10.347986 17.812554 -14.929438 -0.494041 -35.245662 4.149552 -15.727422 -2.702384 -15.384506 2.426492 12.054046 33.696131 -0.996031 6.710519 -9.875288 0.129300 2.317800 6.384700 5.325242 9.381541 -18.114980 -3.480154 -12.242632 35.139643 0.284105 -3.669449 -6.956836 -0.267700 -3.328400 9.194400 0.245899 0.005986 -0.754133 7.752750 0.005042 -1.509276 8.013734 -4.271113 21.651770 6.212000 -3.034800 12.276200 -88.325196 -6.150158 6.863615 12.435721 -21.566856 -2.050480 0.709215 -0.055201 16.251417 -7.125000 0.000000 0.000000 83.222228 -0.334961 2.220435 -17.963844 27.685602 -5.164726 0.319877 0.725119 -14.602137 7.125000 0.000000 0.000000 
10.363341 17.811952 -14.926126 -0.346966 -35.673779 4.119609 -15.949918 -2.610694 -15.463414 2.418600 12.054562 33.685756 -1.064215 6.970787 -10.032928 0.144600 2.450200 6.751600 5.126873 9.678053 -18.192835 -3.475861 -12.225189 35.104752 0.284974 -3.659238 -6.887314 -0.247900 -3.203700 8.846400 0.218405 -0.145371 -0.704710 7.780270 -0.085608 -1.328308 8.297013 -4.280961 21.773454 6.442000 -3.070900 12.370100 -88.196543 -6.584477 6.512154 12.350701 -21.445970 -2.020968 0.712344 -0.067180 16.168339 -7.125000 0.000000 0.000000 83.304764 -0.338103 1.890898 -17.900256 27.628249 -5.141564 0.316172 0.712856 -14.784324 7.125000 0.000000 0.000000 
10.379299 17.811250 -14.920807 -0.271245 -36.231417 4.124008 -16.118277 -2.408994 -15.569574 2.414289 12.058746 33.688176 -1.131254 7.228782 -10.204603 0.157300 2.555300 7.042900 4.975248 9.979264 -18.293543 -3.471114 -12.205696 35.063981 0.255421 -3.469529 -6.719250 -0.265200 -3.313100 9.151700 0.186250 -0.277945 -0.620683 7.760655 -0.175523 -1.031088 8.479906 -4.037684 21.724905 6.530800 -2.927100 12.341400 -87.985956 -7.046763 6.046027 12.321841 -21.419991 -2.009599 0.716149 -0.071048 16.285512 -7.125000 0.000000 0.000000 83.467255 -0.111044 1.467398 -17.746720 27.421487 -5.048598 0.321695 0.709062 -14.577965 7.125000 0.000000 0.000000 
10.395959 17.809945 -14.912878 -0.361629 -36.758299 4.189610 -16.125936 -2.044188 -15.694471 2.413872 12.060805 33.688874 -1.137357 7.263294 -10.288734 0.171900 2.670700 7.363300 4.970061 10.315747 -18.311129 -3.466083 -12.190173 35.027111 0.230697 -3.301694 -6.511852 -0.259700 -3.278900 9.056300 0.191360 -0.367622 -0.539771 7.735477 -0.242935 -0.764425 8.545164 -3.819565 21.591494 6.572500 -2.814000 12.227500 -87.795896 -7.466990 5.872268 12.347357 -21.473717 -2.012370 0.719883 -0.061613 16.322930 -7.125000 0.000000 0.000000 83.399088 -0.174125 1.459464 -17.680463 27.337987 -5.002178 0.332758 0.721581 -14.572076 7.125000 0.000000 0.000000 
